<svg width="44" height="41" viewBox="0 0 44 41" fill="none" xmlns="http://www.w3.org/2000/svg">
<path d="M27.1023 20.0454L31.2341 18H45L42.9545 13.9091H34.8341L39.7227 7.425L37.6977 3.33409L29.3932 14.3182L25.2614 16.3841L26.0795 11.8636L34.425 0.85909L29.9455 0.040909L22.5 9.81818L15.1364 0L10.6364 0.818181L18.9409 11.8636L19.7591 16.3841L15.9955 14.5023L15.6682 14.3386L7.36364 3.27273L5.31818 7.36363L10.2273 13.9091H2.04545L0 18H13.8477L17.8977 20.0454L13.7659 22.0909H0L2.04545 26.1818H10.1659L5.27727 32.6659L7.30227 36.7568L15.6068 25.7727L19.7386 23.7068L18.9205 28.2273L10.575 39.2318L15.0545 40.0704L22.5 30.2727L29.8636 40.0909L34.3636 39.2727L26.0591 28.2273L25.2409 23.7068L29.3318 25.7523L37.6364 36.8182L39.6818 32.7273L34.7727 26.1818H42.9545L45 22.0909H31.1523" fill="#162542"/>
</svg>
