<svg width="45" height="41" viewBox="0 0 45 41" fill="none" xmlns="http://www.w3.org/2000/svg">
<path d="M27.4356 20.5454L31.5674 18.5H45.3333L43.2879 14.4091H35.1674L40.056 7.925L38.031 3.83409L29.7265 14.8182L25.5947 16.8841L26.4129 12.3636L34.7583 1.35909L30.2788 0.540909L22.8333 10.3182L15.4697 0.5L10.9697 1.31818L19.2742 12.3636L20.0924 16.8841L16.3288 15.0023L16.0015 14.8386L7.69695 3.77273L5.65149 7.86363L10.5606 14.4091H2.37877L0.333313 18.5H14.181L18.231 20.5454L14.0992 22.5909H0.333313L2.37877 26.6818H10.4992L5.61059 33.1659L7.63559 37.2568L15.9401 26.2727L20.0719 24.2068L19.2538 28.7273L10.9083 39.7318L15.3879 40.5704L22.8333 30.7727L30.1969 40.5909L34.6969 39.7727L26.3924 28.7273L25.5742 24.2068L29.6651 26.2523L37.9697 37.3182L40.0151 33.2273L35.106 26.6818H43.2879L45.3333 22.5909H31.4856" fill="#BAECE7"/>
</svg>
